<?xml version="1.0" encoding="UTF-8"?>
<svg width="21px" height="19px" viewBox="0 0 21 19" version="1.1" xmlns="http://www.w3.org/2000/svg" xmlns:xlink="http://www.w3.org/1999/xlink">
    <!-- Generator: Sketch 54.1 (76490) - https://sketchapp.com -->
    <title>entrance</title>
    <desc>Created with Sketch.</desc>
    <g id="Styleguide" stroke="none" stroke-width="1" fill="none" fill-rule="evenodd">
        <g transform="translate(-682.000000, -718.000000)" fill="#323232" fill-rule="nonzero" id="Шапка.Поиск-Вход-Корзина">
            <g transform="translate(49.000000, 658.000000)">
                <g id="Главные-иконки">
                    <g id="Вход-наведение" transform="translate(433.000000, 52.000000)">
                        <g id="Иконка" transform="translate(183.000000, 0.000000)">
                            <g id="entrance" transform="translate(17.000000, 8.000000)">
                                <polygon id="Shape" points="7 14.875 13.917 9.5 7 4.125 7 7.042 0.958 7.042 0.958 11.959 7 11.959"></polygon>
                                <path d="M19,0 L6,0 C4.9,0 4,0.9 4,2 L4,4 L6,4 L6,2 L19,2 L19,17 L6,17 L6,15 L4,15 L4,17 C4,18.1 4.9,19 6,19 L19,19 C20.1,19 21,18.1 21,17 L21,2 C21,0.9 20.1,0 19,0 Z" id="Shape"></path>
                            </g>
                        </g>
                    </g>
                </g>
            </g>
        </g>
    </g>
</svg>