<?xml version="1.0" encoding="UTF-8"?>
<svg width="33px" height="33px" viewBox="0 0 33 33" version="1.1" xmlns="http://www.w3.org/2000/svg" xmlns:xlink="http://www.w3.org/1999/xlink">
    <!-- Generator: Sketch 54.1 (76490) - https://sketchapp.com -->
    <title>Поиск</title>
    <desc>Created with Sketch.</desc>
    <g id="Styleguide" stroke="none" stroke-width="1" fill="none" fill-rule="evenodd">
        <g transform="translate(-359.000000, -711.000000)" id="Шапка.Поиск-Вход-Корзина">
            <g transform="translate(49.000000, 658.000000)">
                <g id="Главные-иконки">
                    <g id="Поиск-наведение" transform="translate(0.000000, 52.000000)">
                        <g id="Поиск">
                            <g transform="translate(309.000000, 0.000000)">
                                <path d="M17.624775,1.749545 C26.53035,1.749545 33.749765,8.96896 33.749765,17.87457 C33.749765,26.780005 26.53035,33.999595 17.624775,33.999595 C8.719235,33.999595 1.499715,26.780005 1.499715,17.87457 C1.499715,8.96896 8.719235,1.749545 17.624775,1.749545 Z" id="Подложка" fill="#F8F7F4"></path>
                                <g id="loupe-dark" transform="translate(8.000000, 8.000000)" fill="#323232" fill-rule="nonzero">
                                    <path d="M17.958,16.527 L12.75,11.32 C13.5625824,10.2121429 14.0004848,8.87391313 14,7.5 C14,3.91014913 11.0898509,1 7.5,1 C3.91014913,1 1,3.91014913 1,7.5 C1,11.0898509 3.91014913,14 7.5,14 C8.8817553,14.0000696 10.2271839,13.5574344 11.339,12.737 L16.544,17.941 L17.958,16.527 Z M7.5,12 C5.019,12 3,9.981 3,7.5 C3,5.019 5.019,3 7.5,3 C9.981,3 12,5.019 12,7.5 C12,9.981 9.981,12 7.5,12 Z" id="Shape"></path>
                                </g>
                            </g>
                        </g>
                    </g>
                </g>
            </g>
        </g>
    </g>
</svg>