<?xml version="1.0" encoding="UTF-8"?>
<svg width="17px" height="17px" viewBox="0 0 17 17" version="1.1" xmlns="http://www.w3.org/2000/svg" xmlns:xlink="http://www.w3.org/1999/xlink">
    <!-- Generator: Sketch 54.1 (76490) - https://sketchapp.com -->
    <title>loupe</title>
    <desc>Created with Sketch.</desc>
    <g id="Pages" stroke="none" stroke-width="1" fill="none" fill-rule="evenodd">
        <g id="Index" transform="translate(-935.000000, -30.000000)" fill="#FFFFFF">
            <g id="Шапка" transform="translate(27.000000, 9.000000)">
                <g id="Поиск" transform="translate(899.000000, 12.000000)">
                    <g id="loupe" transform="translate(9.000000, 9.000000)">
                        <g id="Shape">
                            <path d="M16.958,15.527 L11.75,10.32 C12.5625824,9.21214288 13.0004848,7.87391313 13,6.5 C13,2.91014913 10.0898509,-5.7729205e-16 6.5,0 C2.91014913,5.7729205e-16 -2.82015028e-16,2.91014913 -7.21644966e-16,6.5 C-1.1612749e-15,10.0898509 2.91014913,13 6.5,13 C7.8817553,13.0000696 9.2271839,12.5574344 10.339,11.737 L15.544,16.941 L16.958,15.527 Z M6.5,11 C4.019,11 2,8.981 2,6.5 C2,4.019 4.019,2 6.5,2 C8.981,2 11,4.019 11,6.5 C11,8.981 8.981,11 6.5,11 Z" fill-rule="nonzero"></path>
                        </g>
                    </g>
                </g>
            </g>
        </g>
    </g>
</svg>