<?xml version="1.0" encoding="UTF-8"?>
<svg width="22px" height="22px" viewBox="0 0 22 22" version="1.1" xmlns="http://www.w3.org/2000/svg" xmlns:xlink="http://www.w3.org/1999/xlink">
    <!-- Generator: Sketch 54.1 (76490) - https://sketchapp.com -->
    <title>radio-off</title>
    <desc>Created with Sketch.</desc>
    <g id="Styleguide" stroke="none" stroke-width="1" fill="none" fill-rule="evenodd" opacity="0.4">
        <g transform="translate(-360.000000, -2537.000000)" fill="#FFFFFF" fill-rule="nonzero" id="Фильтры,-пагинатор,-соцкнопки">
            <g transform="translate(73.000000, 2238.000000)">
                <g id="radio-off" transform="translate(287.000000, 299.000000)">
                    <path d="M11,3.52 C15.12456,3.52 18.48,6.87544 18.48,11 C18.48,15.12456 15.12456,18.48 11,18.48 C6.87544,18.48 3.52,15.12456 3.52,11 C3.52,6.87544 6.87544,3.52 11,3.52 L11,3.52 Z M11,0 C4.92536,0 0,4.92536 0,11 C0,17.07464 4.92536,22 11,22 C17.07464,22 22,17.07464 22,11 C22,4.92536 17.07464,0 11,0 Z" id="Shape"></path>
                </g>
            </g>
        </g>
    </g>
</svg>